<?xml version="1.0" encoding="UTF-8" standalone="no"?><!-- Generator: Gravit.io --><svg xmlns="http://www.w3.org/2000/svg" xmlns:xlink="http://www.w3.org/1999/xlink" style="isolation:isolate" viewBox="0 0 350 350" width="350pt" height="350pt"><defs><clipPath id="_clipPath_s788x1ySKhQgScOL2cOPp77UXwaAql3V"><rect width="350" height="350"/></clipPath></defs><g clip-path="url(#_clipPath_s788x1ySKhQgScOL2cOPp77UXwaAql3V)"><path d=" M 237.3 51.1 L 225.7 56 L 220.8 44.3 L 221 44.2 C 206.6 39.1 191.1 36.2 175 36.2 L 175 139.7 C 194.5 139.7 210.4 155.5 210.4 175.1 C 210.4 194.6 194.6 210.5 175 210.5 L 175 314 C 191.2 314 206.6 311.1 221 306 L 220.8 305.899 L 225.7 294.199 L 237.4 299.099 C 264.6 285.399 286.6 263.099 299.9 235.699 L 295.2 224.299 L 306.6 219.599 C 311.3 205.599 314 190.699 314 175.199 C 314 159.699 311.4 144.899 306.7 130.999 L 306.7 130.999 L 295 126.099 L 299.9 114.399 L 299.9 114.399 C 286.4 86.999 264.4 64.799 237.3 51.099 L 237.3 51.1 Z  M 207 286.1 C 205.4 286.6 203.8 286.9 202.3 287.3 L 186.7 229.2 C 188.3 228.8 189.9 228.4 191.4 228 L 207 286.1 Z  M 234.6 273.9 C 233.2 274.7 231.8 275.7 230.4 276.5 L 200.3 224.3 C 201.8 223.5 203.2 222.7 204.5 221.8 L 234.6 273.9 Z  M 234.6 76.2 L 204.5 128.3 C 203.1 127.4 201.7 126.6 200.3 125.8 L 230.4 73.6 C 231.9 74.4 233.2 75.4 234.6 76.2 L 234.6 76.2 Z  M 202.2 62.8 C 203.8 63.2 205.4 63.6 206.9 64 L 191.3 122.1 C 189.7 121.6 188.2 121.2 186.6 120.9 L 202.2 62.8 Z  M 273.6 235 L 221.5 204.9 C 222.4 203.5 223.2 202.1 224 200.7 L 276.2 230.8 C 275.3 232.2 274.4 233.6 273.6 235 Z  M 285.8 207.4 L 227.7 191.8 C 228.2 190.2 228.6 188.7 228.9 187.1 L 287 202.7 C 286.6 204.2 286.2 205.8 285.8 207.4 Z  M 287 147.5 L 228.9 163.1 C 228.5 161.5 228.1 159.9 227.7 158.4 L 285.8 142.8 C 286.2 144.3 286.6 145.9 287 147.5 Z  M 276.1 119.4 L 223.9 149.5 C 223.1 148 222.3 146.6 221.4 145.3 L 273.5 115.2 C 274.4 116.6 275.3 117.9 276.1 119.4 L 276.1 119.4 Z " fill="rgb(255,72,0)"/></g></svg>