<?xml version="1.0" encoding="UTF-8" standalone="no"?><!-- Generator: Gravit.io --><svg xmlns="http://www.w3.org/2000/svg" xmlns:xlink="http://www.w3.org/1999/xlink" style="isolation:isolate" viewBox="0 0 350 350" width="350pt" height="350pt"><defs><clipPath id="_clipPath_je1Ha7KML04oNSfx9Cr2ZlU0wo270Dz7"><rect width="350" height="350"/></clipPath></defs><g clip-path="url(#_clipPath_je1Ha7KML04oNSfx9Cr2ZlU0wo270Dz7)"><path d=" M 129 44.2 L 129.2 44.3 L 124.3 56 L 112.6 51.1 C 85.4 64.8 63.4 87.1 50.1 114.5 L 54.8 125.9 L 43.4 130.6 C 38.7 144.6 36 159.5 36 175 C 36 190.5 38.6 205.3 43.3 219.2 L 43.3 219.2 L 55 224.1 L 50.1 235.8 L 50.1 235.8 C 63.4 263.1 85.4 285.4 112.5 299.1 L 124.1 294.2 L 129 305.9 L 128.8 306 C 143.2 311.1 158.7 314 174.8 314 L 174.8 210.5 C 155.3 210.5 139.4 194.7 139.4 175.1 C 139.4 155.6 155.2 139.7 174.8 139.7 L 174.8 36.2 C 158.9 36.2 143.5 39.1 129 44.2 L 129 44.2 Z  M 63 202.7 L 121.1 187.1 C 121.5 188.7 121.9 190.3 122.3 191.8 L 64.2 207.4 C 63.8 205.9 63.4 204.3 63 202.7 Z  M 73.9 230.8 L 126.1 200.7 C 126.9 202.2 127.7 203.6 128.6 204.9 L 76.5 235 C 75.6 233.6 74.7 232.3 73.9 230.8 Z  M 115.4 274 L 145.5 221.9 C 146.9 222.8 148.3 223.6 149.7 224.4 L 119.6 276.6 C 118.1 275.8 116.8 274.8 115.4 274 L 115.4 274 Z  M 147.8 287.4 C 146.2 287 144.6 286.6 143.1 286.2 L 158.7 228.1 C 160.3 228.6 161.8 229 163.4 229.3 L 147.8 287.4 Z  M 121.1 163.1 L 63 147.6 C 63.4 146 63.8 144.4 64.2 142.8 L 122.3 158.4 C 121.9 160 121.5 161.5 121.1 163.1 Z  M 126.1 149.5 L 73.9 119.4 C 74.7 118 75.6 116.6 76.4 115.2 L 128.5 145.3 C 127.6 146.7 126.8 148.1 126.1 149.5 Z  M 149.7 125.9 C 148.2 126.7 146.8 127.5 145.5 128.4 L 115.4 76.3 C 116.8 75.5 118.2 74.5 119.6 73.7 L 149.7 125.9 Z  M 163.3 120.9 C 161.7 121.3 160.1 121.7 158.6 122.1 L 143 64 C 144.6 63.5 146.2 63.2 147.7 62.8 L 163.3 120.9 Z " fill="rgb(255,72,0)"/></g></svg>